<?xml version="1.0" encoding="UTF-8" standalone="no"?>
<!DOCTYPE svg PUBLIC "-//W3C//DTD SVG 1.1//EN" "http://www.w3.org/Graphics/SVG/1.1/DTD/svg11.dtd">
<svg baseProfile="full" height="100%" version="1.1" width="100%" xmlns="http://www.w3.org/2000/svg" xmlns:ev="http://www.w3.org/2001/xml-events" xmlns:xlink="http://www.w3.org/1999/xlink"><defs><marker fill="black" id="id6" markerHeight="10" markerUnits="strokeWidth" markerWidth="8" orient="auto" overflow="visible" refX="0" refY="5" stroke="none" viewBox="0 0 10 5"><path d="M 0 0 L 10 5 L 0 10 z"/></marker><marker fill="black" id="id7" markerHeight="10" markerUnits="strokeWidth" markerWidth="8" orient="auto" overflow="visible" refX="0" refY="5" stroke="none" viewBox="0 0 10 5"><path d="M 0 0 L 10 5 L 0 10 z"/></marker><marker fill="black" id="id8" markerHeight="10" markerUnits="strokeWidth" markerWidth="8" orient="auto" overflow="visible" refX="0" refY="5" stroke="none" viewBox="0 0 10 5"><path d="M 0 0 L 10 5 L 0 10 z"/></marker><marker fill="black" id="id9" markerHeight="10" markerUnits="strokeWidth" markerWidth="8" orient="auto" overflow="visible" refX="0" refY="5" stroke="none" viewBox="0 0 10 5"><path d="M 0 0 L 10 5 L 0 10 z"/></marker><marker fill="black" id="id10" markerHeight="10" markerUnits="strokeWidth" markerWidth="8" orient="auto" overflow="visible" refX="0" refY="5" stroke="none" viewBox="0 0 10 5"><path d="M 0 0 L 10 5 L 0 10 z"/></marker><marker fill="black" id="id11" markerHeight="10" markerUnits="strokeWidth" markerWidth="8" orient="auto" overflow="visible" refX="0" refY="5" stroke="none" viewBox="0 0 10 5"><path d="M 0 0 L 10 5 L 0 10 z"/></marker><marker fill="black" id="id12" markerHeight="10" markerUnits="strokeWidth" markerWidth="8" orient="auto" overflow="visible" refX="0" refY="5" stroke="none" viewBox="0 0 10 5"><path d="M 0 0 L 10 5 L 0 10 z"/></marker></defs><rect fill="#EBD9B2" height="30" stroke="#000000" width="198.0" x="195" y="659"/><rect fill="#ffffff" height="20" stroke="rgb(0,0,0)" width="198.0" x="195" y="689"/><rect fill="#EBD9B2" height="30" stroke="#000000" width="107.25" x="695" y="285"/><rect fill="#ffffff" height="20" stroke="rgb(0,0,0)" width="107.25" x="695" y="315"/><rect fill="#EBD9B2" height="30" stroke="#000000" width="107.25" x="998" y="780"/><rect fill="#ffffff" height="20" stroke="rgb(0,0,0)" width="107.25" x="998" y="810"/><rect fill="#EBD9B2" height="30" stroke="#000000" width="258.5" x="485.433334351" y="442.433334351"/><rect fill="#ffffff" height="140" stroke="rgb(0,0,0)" width="258.5" x="485.433334351" y="472.433334351"/><rect fill="#EBD9B2" height="30" stroke="#000000" width="225.5" x="421" y="881"/><rect fill="#ffffff" height="95" stroke="rgb(0,0,0)" width="225.5" x="421" y="911"/><rect fill="#EBD9B2" height="30" stroke="#000000" width="280.5" x="899.5" y="488"/><rect fill="#ffffff" height="65" stroke="rgb(0,0,0)" width="280.5" x="899.5" y="518"/><rect fill="#EBD9B2" height="30" stroke="#000000" width="225.5" x="872" y="921"/><rect fill="#ffffff" height="95" stroke="rgb(0,0,0)" width="225.5" x="872" y="951"/><rect fill="#EBD9B2" height="30" stroke="#000000" width="121.0" x="1272.43334961" y="657.433349609"/><rect fill="#ffffff" height="140" stroke="rgb(0,0,0)" width="121.0" x="1272.43334961" y="687.433349609"/><line marker-end="url(#id6)" stroke="#000000" x1="398.0" x2="480.433334351" y1="699" y2="487.433334351"/><line marker-end="url(#id7)" stroke="#000000" x1="398.0" x2="416" y1="699" y2="926"/><line marker-end="url(#id8)" stroke="#000000" x1="748.933334351" x2="894.5" y1="512.433334351" y2="548"/><line marker-end="url(#id9)" stroke="#000000" x1="807.25" x2="894.5" y1="325" y2="533"/><line marker-end="url(#id10)" stroke="#000000" x1="748.933334351" x2="867" y1="512.433334351" y2="966"/><line marker-end="url(#id11)" stroke="#000000" x1="1185.0" x2="1267.43334961" y1="573" y2="702.433349609"/><line marker-end="url(#id12)" stroke="#000000" x1="1110.25" x2="1267.43334961" y1="820" y2="717.433349609"/><g style="font-family: Helvetica, Arial, FreeSans, Sans, sans, sans-serif;"><text style="font-size:14px" x="200" y="679">Input dataset collection</text><text style="font-size:10px" x="200" y="704">output</text><text style="font-size:14px" x="700" y="305">Input dataset</text><text style="font-size:10px" x="700" y="330">output</text><text style="font-size:14px" x="1003" y="800">Input dataset</text><text style="font-size:10px" x="1003" y="825">output</text><text style="font-size:14px" x="490.433334351" y="462.433334351">Trimmomatic</text><text style="font-size:10px" x="490.433334351" y="487.433334351">Select FASTQ dataset collection with R1/R2 pair</text><text style="font-size:10px" x="490.433334351" y="517.433334351">fastq_out_paired</text><text style="font-size:10px" x="490.433334351" y="532.433334351">fastq_out_unpaired</text><text style="font-size:10px" x="490.433334351" y="547.433334351">fastq_out_r1_paired</text><text style="font-size:10px" x="490.433334351" y="562.433334351">fastq_out_r2_paired</text><text style="font-size:10px" x="490.433334351" y="577.433334351">fastq_out_r1_unpaired</text><text style="font-size:10px" x="490.433334351" y="592.433334351">fastq_out_r2_unpaired</text><text style="font-size:10px" x="490.433334351" y="607.433334351">fastq_out</text><text style="font-size:14px" x="426" y="901">FastQC</text><text style="font-size:10px" x="426" y="926">Short read data from your current history</text><text style="font-size:10px" x="426" y="941">Contaminant list</text><text style="font-size:10px" x="426" y="956">Submodule and Limit specifing file</text><text style="font-size:10px" x="426" y="986">html_file</text><text style="font-size:10px" x="426" y="1001">text_file</text><text style="font-size:14px" x="904.5" y="508">Map with BWA-MEM</text><text style="font-size:10px" x="904.5" y="533">Use the following dataset as the reference sequence</text><text style="font-size:10px" x="904.5" y="548">Select a paired collection</text><text style="font-size:10px" x="904.5" y="578">bam_output</text><text style="font-size:14px" x="877" y="941">FastQC</text><text style="font-size:10px" x="877" y="966">Short read data from your current history</text><text style="font-size:10px" x="877" y="981">Contaminant list</text><text style="font-size:10px" x="877" y="996">Submodule and Limit specifing file</text><text style="font-size:10px" x="877" y="1026">html_file</text><text style="font-size:10px" x="877" y="1041">text_file</text><text style="font-size:14px" x="1277.43334961" y="677.433349609">featureCounts</text><text style="font-size:10px" x="1277.43334961" y="702.433349609">Alignment file</text><text style="font-size:10px" x="1277.43334961" y="717.433349609">Gene annotation file</text><text style="font-size:10px" x="1277.43334961" y="747.433349609">output_medium</text><text style="font-size:10px" x="1277.43334961" y="762.433349609">output_short</text><text style="font-size:10px" x="1277.43334961" y="777.433349609">output_full</text><text style="font-size:10px" x="1277.43334961" y="792.433349609">output_summary</text><text style="font-size:10px" x="1277.43334961" y="807.433349609">output_feature_lengths</text><text style="font-size:10px" x="1277.43334961" y="822.433349609">output_jcounts</text><line stroke="rgb(0,0,0)" x1="485.433334351" x2="743.933334351" y1="497.433334351" y2="497.433334351"/><circle cx="393.0" cy="699" fill="#ffffff" r="5" stroke="#000000"/><line stroke="rgb(0,0,0)" x1="421" x2="646.5" y1="966" y2="966"/><circle cx="393.0" cy="699" fill="#ffffff" r="5" stroke="#000000"/><line stroke="rgb(0,0,0)" x1="899.5" x2="1180.0" y1="558" y2="558"/><circle cx="743.933334351" cy="512.433334351" fill="#ffffff" r="5" stroke="#000000"/><circle cx="802.25" cy="325" fill="#ffffff" r="5" stroke="#000000"/><line stroke="rgb(0,0,0)" x1="872" x2="1097.5" y1="1006" y2="1006"/><circle cx="743.933334351" cy="512.433334351" fill="#ffffff" r="5" stroke="#000000"/><line stroke="rgb(0,0,0)" x1="1272.43334961" x2="1393.43334961" y1="727.433349609" y2="727.433349609"/><circle cx="1180.0" cy="573" fill="#ffffff" r="5" stroke="#000000"/><circle cx="1105.25" cy="820" fill="#ffffff" r="5" stroke="#000000"/></g></svg>