<?xml version="1.0" encoding="UTF-8" standalone="no"?>
<!DOCTYPE svg PUBLIC "-//W3C//DTD SVG 1.1//EN" "http://www.w3.org/Graphics/SVG/1.1/DTD/svg11.dtd">
<svg baseProfile="full" height="100%" version="1.1" width="100%" xmlns="http://www.w3.org/2000/svg" xmlns:ev="http://www.w3.org/2001/xml-events" xmlns:xlink="http://www.w3.org/1999/xlink"><defs><marker fill="black" id="id26" markerHeight="10" markerUnits="strokeWidth" markerWidth="8" orient="auto" overflow="visible" refX="0" refY="5" stroke="none" viewBox="0 0 10 5"><path d="M 0 0 L 10 5 L 0 10 z"/></marker><marker fill="black" id="id27" markerHeight="10" markerUnits="strokeWidth" markerWidth="8" orient="auto" overflow="visible" refX="0" refY="5" stroke="none" viewBox="0 0 10 5"><path d="M 0 0 L 10 5 L 0 10 z"/></marker><marker fill="black" id="id28" markerHeight="10" markerUnits="strokeWidth" markerWidth="8" orient="auto" overflow="visible" refX="0" refY="5" stroke="none" viewBox="0 0 10 5"><path d="M 0 0 L 10 5 L 0 10 z"/></marker><marker fill="black" id="id29" markerHeight="10" markerUnits="strokeWidth" markerWidth="8" orient="auto" overflow="visible" refX="0" refY="5" stroke="none" viewBox="0 0 10 5"><path d="M 0 0 L 10 5 L 0 10 z"/></marker><marker fill="black" id="id30" markerHeight="10" markerUnits="strokeWidth" markerWidth="8" orient="auto" overflow="visible" refX="0" refY="5" stroke="none" viewBox="0 0 10 5"><path d="M 0 0 L 10 5 L 0 10 z"/></marker><marker fill="black" id="id31" markerHeight="10" markerUnits="strokeWidth" markerWidth="8" orient="auto" overflow="visible" refX="0" refY="5" stroke="none" viewBox="0 0 10 5"><path d="M 0 0 L 10 5 L 0 10 z"/></marker><marker fill="black" id="id32" markerHeight="10" markerUnits="strokeWidth" markerWidth="8" orient="auto" overflow="visible" refX="0" refY="5" stroke="none" viewBox="0 0 10 5"><path d="M 0 0 L 10 5 L 0 10 z"/></marker><marker fill="black" id="id33" markerHeight="10" markerUnits="strokeWidth" markerWidth="8" orient="auto" overflow="visible" refX="0" refY="5" stroke="none" viewBox="0 0 10 5"><path d="M 0 0 L 10 5 L 0 10 z"/></marker><marker fill="black" id="id34" markerHeight="10" markerUnits="strokeWidth" markerWidth="8" orient="auto" overflow="visible" refX="0" refY="5" stroke="none" viewBox="0 0 10 5"><path d="M 0 0 L 10 5 L 0 10 z"/></marker><marker fill="black" id="id35" markerHeight="10" markerUnits="strokeWidth" markerWidth="8" orient="auto" overflow="visible" refX="0" refY="5" stroke="none" viewBox="0 0 10 5"><path d="M 0 0 L 10 5 L 0 10 z"/></marker><marker fill="black" id="id36" markerHeight="10" markerUnits="strokeWidth" markerWidth="8" orient="auto" overflow="visible" refX="0" refY="5" stroke="none" viewBox="0 0 10 5"><path d="M 0 0 L 10 5 L 0 10 z"/></marker><marker fill="black" id="id37" markerHeight="10" markerUnits="strokeWidth" markerWidth="8" orient="auto" overflow="visible" refX="0" refY="5" stroke="none" viewBox="0 0 10 5"><path d="M 0 0 L 10 5 L 0 10 z"/></marker><marker fill="black" id="id38" markerHeight="10" markerUnits="strokeWidth" markerWidth="8" orient="auto" overflow="visible" refX="0" refY="5" stroke="none" viewBox="0 0 10 5"><path d="M 0 0 L 10 5 L 0 10 z"/></marker><marker fill="black" id="id39" markerHeight="10" markerUnits="strokeWidth" markerWidth="8" orient="auto" overflow="visible" refX="0" refY="5" stroke="none" viewBox="0 0 10 5"><path d="M 0 0 L 10 5 L 0 10 z"/></marker><marker fill="black" id="id40" markerHeight="10" markerUnits="strokeWidth" markerWidth="8" orient="auto" overflow="visible" refX="0" refY="5" stroke="none" viewBox="0 0 10 5"><path d="M 0 0 L 10 5 L 0 10 z"/></marker><marker fill="black" id="id41" markerHeight="10" markerUnits="strokeWidth" markerWidth="8" orient="auto" overflow="visible" refX="0" refY="5" stroke="none" viewBox="0 0 10 5"><path d="M 0 0 L 10 5 L 0 10 z"/></marker><marker fill="black" id="id42" markerHeight="10" markerUnits="strokeWidth" markerWidth="8" orient="auto" overflow="visible" refX="0" refY="5" stroke="none" viewBox="0 0 10 5"><path d="M 0 0 L 10 5 L 0 10 z"/></marker><marker fill="black" id="id43" markerHeight="10" markerUnits="strokeWidth" markerWidth="8" orient="auto" overflow="visible" refX="0" refY="5" stroke="none" viewBox="0 0 10 5"><path d="M 0 0 L 10 5 L 0 10 z"/></marker></defs><rect fill="#EBD9B2" height="30" stroke="#000000" width="198.0" x="232.933334351" y="518"/><rect fill="#ffffff" height="20" stroke="rgb(0,0,0)" width="198.0" x="232.933334351" y="548"/><rect fill="#EBD9B2" height="30" stroke="#000000" width="107.25" x="592.433349609" y="849"/><rect fill="#ffffff" height="20" stroke="rgb(0,0,0)" width="107.25" x="592.433349609" y="879"/><rect fill="#EBD9B2" height="30" stroke="#000000" width="198.0" x="198.933334351" y="1238"/><rect fill="#ffffff" height="20" stroke="rgb(0,0,0)" width="198.0" x="198.933334351" y="1268"/><rect fill="#EBD9B2" height="30" stroke="#000000" width="107.25" x="866.433349609" y="853"/><rect fill="#ffffff" height="20" stroke="rgb(0,0,0)" width="107.25" x="866.433349609" y="883"/><rect fill="#EBD9B2" height="30" stroke="#000000" width="225.5" x="389.433334351" y="208"/><rect fill="#ffffff" height="95" stroke="rgb(0,0,0)" width="225.5" x="389.433334351" y="238"/><rect fill="#EBD9B2" height="30" stroke="#000000" width="258.5" x="561.433349609" y="462"/><rect fill="#ffffff" height="140" stroke="rgb(0,0,0)" width="258.5" x="561.433349609" y="492"/><rect fill="#EBD9B2" height="30" stroke="#000000" width="225.5" x="398.433334351" y="993"/><rect fill="#ffffff" height="95" stroke="rgb(0,0,0)" width="225.5" x="398.433334351" y="1023"/><rect fill="#EBD9B2" height="30" stroke="#000000" width="258.5" x="488.433349609" y="1260"/><rect fill="#ffffff" height="140" stroke="rgb(0,0,0)" width="258.5" x="488.433349609" y="1290"/><rect fill="#EBD9B2" height="30" stroke="#000000" width="225.5" x="781.433349609" y="200"/><rect fill="#ffffff" height="95" stroke="rgb(0,0,0)" width="225.5" x="781.433349609" y="230"/><rect fill="#EBD9B2" height="30" stroke="#000000" width="280.5" x="867.433349609" y="497"/><rect fill="#ffffff" height="65" stroke="rgb(0,0,0)" width="280.5" x="867.433349609" y="527"/><rect fill="#EBD9B2" height="30" stroke="#000000" width="225.5" x="738.166687012" y="1006.2333374"/><rect fill="#ffffff" height="95" stroke="rgb(0,0,0)" width="225.5" x="738.166687012" y="1036.2333374"/><rect fill="#EBD9B2" height="30" stroke="#000000" width="280.5" x="791.666687012" y="1301.23339844"/><rect fill="#ffffff" height="65" stroke="rgb(0,0,0)" width="280.5" x="791.666687012" y="1331.23339844"/><rect fill="#EBD9B2" height="30" stroke="#000000" width="121.0" x="1167.43334961" y="493"/><rect fill="#ffffff" height="140" stroke="rgb(0,0,0)" width="121.0" x="1167.43334961" y="523"/><rect fill="#EBD9B2" height="30" stroke="#000000" width="121.0" x="1167.16668701" y="1136.2333374"/><rect fill="#ffffff" height="140" stroke="rgb(0,0,0)" width="121.0" x="1167.16668701" y="1166.2333374"/><rect fill="#EBD9B2" height="30" stroke="#000000" width="132.0" x="1490.93334961" y="546"/><rect fill="#ffffff" height="50" stroke="rgb(0,0,0)" width="132.0" x="1490.93334961" y="576"/><rect fill="#EBD9B2" height="30" stroke="#000000" width="132.0" x="1484.66662598" y="1196.2333374"/><rect fill="#ffffff" height="50" stroke="rgb(0,0,0)" width="132.0" x="1484.66662598" y="1226.2333374"/><rect fill="#EBD9B2" height="30" stroke="#000000" width="231.0" x="1816.43334961" y="885"/><rect fill="#ffffff" height="110" stroke="rgb(0,0,0)" width="231.0" x="1816.43334961" y="915"/><line marker-end="url(#id26)" stroke="#000000" x1="435.933334351" x2="384.433334351" y1="558" y2="253"/><line marker-end="url(#id27)" stroke="#000000" x1="435.933334351" x2="556.433349609" y1="558" y2="507"/><line marker-end="url(#id28)" stroke="#000000" x1="401.933334351" x2="393.433334351" y1="1278" y2="1038"/><line marker-end="url(#id29)" stroke="#000000" x1="401.933334351" x2="483.433349609" y1="1278" y2="1305"/><line marker-end="url(#id30)" stroke="#000000" x1="824.933349609" x2="776.433349609" y1="532" y2="245"/><line marker-end="url(#id31)" stroke="#000000" x1="824.933349609" x2="862.433349609" y1="532" y2="557"/><line marker-end="url(#id32)" stroke="#000000" x1="704.683349609" x2="862.433349609" y1="889" y2="542"/><line marker-end="url(#id33)" stroke="#000000" x1="751.933349609" x2="733.166687012" y1="1330" y2="1051.2333374"/><line marker-end="url(#id34)" stroke="#000000" x1="751.933349609" x2="786.666687012" y1="1330" y2="1361.23339844"/><line marker-end="url(#id35)" stroke="#000000" x1="704.683349609" x2="786.666687012" y1="889" y2="1346.23339844"/><line marker-end="url(#id36)" stroke="#000000" x1="1152.93334961" x2="1162.43334961" y1="582" y2="538"/><line marker-end="url(#id37)" stroke="#000000" x1="978.683349609" x2="1162.43334961" y1="893" y2="553"/><line marker-end="url(#id38)" stroke="#000000" x1="1077.16668701" x2="1162.16668701" y1="1386.23339844" y2="1181.2333374"/><line marker-end="url(#id39)" stroke="#000000" x1="978.683349609" x2="1162.16668701" y1="893" y2="1196.2333374"/><line marker-end="url(#id40)" stroke="#000000" x1="1293.43334961" x2="1485.93334961" y1="593" y2="591"/><line marker-end="url(#id41)" stroke="#000000" x1="1293.16668701" x2="1479.66662598" y1="1236.2333374" y2="1241.2333374"/><line marker-end="url(#id42)" stroke="#000000" x1="1627.93334961" x2="1811.43334961" y1="616" y2="930"/><line marker-end="url(#id43)" stroke="#000000" x1="1621.66662598" x2="1811.43334961" y1="1266.2333374" y2="945"/><g style="font-family: Helvetica, Arial, FreeSans, Sans, sans, sans-serif;"><text style="font-size:14px" x="237.933334351" y="538">Input dataset collection</text><text style="font-size:10px" x="237.933334351" y="563">output</text><text style="font-size:14px" x="597.433349609" y="869">Input dataset</text><text style="font-size:10px" x="597.433349609" y="894">output</text><text style="font-size:14px" x="203.933334351" y="1258">Input dataset collection</text><text style="font-size:10px" x="203.933334351" y="1283">output</text><text style="font-size:14px" x="871.433349609" y="873">Input dataset</text><text style="font-size:10px" x="871.433349609" y="898">output</text><text style="font-size:14px" x="394.433334351" y="228">FastQC</text><text style="font-size:10px" x="394.433334351" y="253">Short read data from your current history</text><text style="font-size:10px" x="394.433334351" y="268">Contaminant list</text><text style="font-size:10px" x="394.433334351" y="283">Submodule and Limit specifing file</text><text style="font-size:10px" x="394.433334351" y="313">html_file</text><text style="font-size:10px" x="394.433334351" y="328">text_file</text><text style="font-size:14px" x="566.433349609" y="482">Trimmomatic</text><text style="font-size:10px" x="566.433349609" y="507">Select FASTQ dataset collection with R1/R2 pair</text><text style="font-size:10px" x="566.433349609" y="537">fastq_out_paired</text><text style="font-size:10px" x="566.433349609" y="552">fastq_out_unpaired</text><text style="font-size:10px" x="566.433349609" y="567">fastq_out_r1_paired</text><text style="font-size:10px" x="566.433349609" y="582">fastq_out_r2_paired</text><text style="font-size:10px" x="566.433349609" y="597">fastq_out_r1_unpaired</text><text style="font-size:10px" x="566.433349609" y="612">fastq_out_r2_unpaired</text><text style="font-size:10px" x="566.433349609" y="627">fastq_out</text><text style="font-size:14px" x="403.433334351" y="1013">FastQC</text><text style="font-size:10px" x="403.433334351" y="1038">Short read data from your current history</text><text style="font-size:10px" x="403.433334351" y="1053">Contaminant list</text><text style="font-size:10px" x="403.433334351" y="1068">Submodule and Limit specifing file</text><text style="font-size:10px" x="403.433334351" y="1098">html_file</text><text style="font-size:10px" x="403.433334351" y="1113">text_file</text><text style="font-size:14px" x="493.433349609" y="1280">Trimmomatic</text><text style="font-size:10px" x="493.433349609" y="1305">Select FASTQ dataset collection with R1/R2 pair</text><text style="font-size:10px" x="493.433349609" y="1335">fastq_out_paired</text><text style="font-size:10px" x="493.433349609" y="1350">fastq_out_unpaired</text><text style="font-size:10px" x="493.433349609" y="1365">fastq_out_r1_paired</text><text style="font-size:10px" x="493.433349609" y="1380">fastq_out_r2_paired</text><text style="font-size:10px" x="493.433349609" y="1395">fastq_out_r1_unpaired</text><text style="font-size:10px" x="493.433349609" y="1410">fastq_out_r2_unpaired</text><text style="font-size:10px" x="493.433349609" y="1425">fastq_out</text><text style="font-size:14px" x="786.433349609" y="220">FastQC</text><text style="font-size:10px" x="786.433349609" y="245">Short read data from your current history</text><text style="font-size:10px" x="786.433349609" y="260">Contaminant list</text><text style="font-size:10px" x="786.433349609" y="275">Submodule and Limit specifing file</text><text style="font-size:10px" x="786.433349609" y="305">html_file</text><text style="font-size:10px" x="786.433349609" y="320">text_file</text><text style="font-size:14px" x="872.433349609" y="517">Map with BWA-MEM</text><text style="font-size:10px" x="872.433349609" y="542">Use the following dataset as the reference sequence</text><text style="font-size:10px" x="872.433349609" y="557">Select a paired collection</text><text style="font-size:10px" x="872.433349609" y="587">bam_output</text><text style="font-size:14px" x="743.166687012" y="1026.2333374">FastQC</text><text style="font-size:10px" x="743.166687012" y="1051.2333374">Short read data from your current history</text><text style="font-size:10px" x="743.166687012" y="1066.2333374">Contaminant list</text><text style="font-size:10px" x="743.166687012" y="1081.2333374">Submodule and Limit specifing file</text><text style="font-size:10px" x="743.166687012" y="1111.2333374">html_file</text><text style="font-size:10px" x="743.166687012" y="1126.2333374">text_file</text><text style="font-size:14px" x="796.666687012" y="1321.23339844">Map with BWA-MEM</text><text style="font-size:10px" x="796.666687012" y="1346.23339844">Use the following dataset as the reference sequence</text><text style="font-size:10px" x="796.666687012" y="1361.23339844">Select a paired collection</text><text style="font-size:10px" x="796.666687012" y="1391.23339844">bam_output</text><text style="font-size:14px" x="1172.43334961" y="513">featureCounts</text><text style="font-size:10px" x="1172.43334961" y="538">Alignment file</text><text style="font-size:10px" x="1172.43334961" y="553">Gene annotation file</text><text style="font-size:10px" x="1172.43334961" y="583">output_medium</text><text style="font-size:10px" x="1172.43334961" y="598">output_short</text><text style="font-size:10px" x="1172.43334961" y="613">output_full</text><text style="font-size:10px" x="1172.43334961" y="628">output_summary</text><text style="font-size:10px" x="1172.43334961" y="643">output_feature_lengths</text><text style="font-size:10px" x="1172.43334961" y="658">output_jcounts</text><text style="font-size:14px" x="1172.16668701" y="1156.2333374">featureCounts</text><text style="font-size:10px" x="1172.16668701" y="1181.2333374">Alignment file</text><text style="font-size:10px" x="1172.16668701" y="1196.2333374">Gene annotation file</text><text style="font-size:10px" x="1172.16668701" y="1226.2333374">output_medium</text><text style="font-size:10px" x="1172.16668701" y="1241.2333374">output_short</text><text style="font-size:10px" x="1172.16668701" y="1256.2333374">output_full</text><text style="font-size:10px" x="1172.16668701" y="1271.2333374">output_summary</text><text style="font-size:10px" x="1172.16668701" y="1286.2333374">output_feature_lengths</text><text style="font-size:10px" x="1172.16668701" y="1301.2333374">output_jcounts</text><text style="font-size:14px" x="1495.93334961" y="566">Remove beginning</text><text style="font-size:10px" x="1495.93334961" y="591">from</text><text style="font-size:10px" x="1495.93334961" y="621">out_file1</text><text style="font-size:14px" x="1489.66662598" y="1216.2333374">Remove beginning</text><text style="font-size:10px" x="1489.66662598" y="1241.2333374">from</text><text style="font-size:10px" x="1489.66662598" y="1271.2333374">out_file1</text><text style="font-size:14px" x="1821.43334961" y="905">DESeq2</text><text style="font-size:10px" x="1821.43334961" y="930">Factor 1 &gt; Factor level 1 &gt; Counts file(s)</text><text style="font-size:10px" x="1821.43334961" y="945">Factor 1 &gt; Factor level 2 &gt; Counts file(s)</text><text style="font-size:10px" x="1821.43334961" y="975">split_output</text><text style="font-size:10px" x="1821.43334961" y="990">deseq_out</text><text style="font-size:10px" x="1821.43334961" y="1005">plots</text><text style="font-size:10px" x="1821.43334961" y="1020">counts_out</text><line stroke="rgb(0,0,0)" x1="389.433334351" x2="614.933334351" y1="293" y2="293"/><circle cx="430.933334351" cy="558" fill="#ffffff" r="5" stroke="#000000"/><line stroke="rgb(0,0,0)" x1="561.433349609" x2="819.933349609" y1="517" y2="517"/><circle cx="430.933334351" cy="558" fill="#ffffff" r="5" stroke="#000000"/><line stroke="rgb(0,0,0)" x1="398.433334351" x2="623.933334351" y1="1078" y2="1078"/><circle cx="396.933334351" cy="1278" fill="#ffffff" r="5" stroke="#000000"/><line stroke="rgb(0,0,0)" x1="488.433349609" x2="746.933349609" y1="1315" y2="1315"/><circle cx="396.933334351" cy="1278" fill="#ffffff" r="5" stroke="#000000"/><line stroke="rgb(0,0,0)" x1="781.433349609" x2="1006.93334961" y1="285" y2="285"/><circle cx="819.933349609" cy="532" fill="#ffffff" r="5" stroke="#000000"/><line stroke="rgb(0,0,0)" x1="867.433349609" x2="1147.93334961" y1="567" y2="567"/><circle cx="819.933349609" cy="532" fill="#ffffff" r="5" stroke="#000000"/><circle cx="699.683349609" cy="889" fill="#ffffff" r="5" stroke="#000000"/><line stroke="rgb(0,0,0)" x1="738.166687012" x2="963.666687012" y1="1091.2333374" y2="1091.2333374"/><circle cx="746.933349609" cy="1330" fill="#ffffff" r="5" stroke="#000000"/><line stroke="rgb(0,0,0)" x1="791.666687012" x2="1072.16668701" y1="1371.23339844" y2="1371.23339844"/><circle cx="746.933349609" cy="1330" fill="#ffffff" r="5" stroke="#000000"/><circle cx="699.683349609" cy="889" fill="#ffffff" r="5" stroke="#000000"/><line stroke="rgb(0,0,0)" x1="1167.43334961" x2="1288.43334961" y1="563" y2="563"/><circle cx="1147.93334961" cy="582" fill="#ffffff" r="5" stroke="#000000"/><circle cx="973.683349609" cy="893" fill="#ffffff" r="5" stroke="#000000"/><line stroke="rgb(0,0,0)" x1="1167.16668701" x2="1288.16668701" y1="1206.2333374" y2="1206.2333374"/><circle cx="1072.16668701" cy="1386.23339844" fill="#ffffff" r="5" stroke="#000000"/><circle cx="973.683349609" cy="893" fill="#ffffff" r="5" stroke="#000000"/><line stroke="rgb(0,0,0)" x1="1490.93334961" x2="1622.93334961" y1="601" y2="601"/><circle cx="1288.43334961" cy="593" fill="#ffffff" r="5" stroke="#000000"/><line stroke="rgb(0,0,0)" x1="1484.66662598" x2="1616.66662598" y1="1251.2333374" y2="1251.2333374"/><circle cx="1288.16668701" cy="1236.2333374" fill="#ffffff" r="5" stroke="#000000"/><line stroke="rgb(0,0,0)" x1="1816.43334961" x2="2047.43334961" y1="955" y2="955"/><circle cx="1622.93334961" cy="616" fill="#ffffff" r="5" stroke="#000000"/><circle cx="1616.66662598" cy="1266.2333374" fill="#ffffff" r="5" stroke="#000000"/></g></svg>