<?xml version="1.0" encoding="UTF-8" standalone="no"?>
<!DOCTYPE svg PUBLIC "-//W3C//DTD SVG 1.1//EN" "http://www.w3.org/Graphics/SVG/1.1/DTD/svg11.dtd">
<svg baseProfile="full" height="100%" version="1.1" width="100%" xmlns="http://www.w3.org/2000/svg" xmlns:ev="http://www.w3.org/2001/xml-events" xmlns:xlink="http://www.w3.org/1999/xlink"><defs><marker fill="black" id="id13" markerHeight="10" markerUnits="strokeWidth" markerWidth="8" orient="auto" overflow="visible" refX="0" refY="5" stroke="none" viewBox="0 0 10 5"><path d="M 0 0 L 10 5 L 0 10 z"/></marker><marker fill="black" id="id14" markerHeight="10" markerUnits="strokeWidth" markerWidth="8" orient="auto" overflow="visible" refX="0" refY="5" stroke="none" viewBox="0 0 10 5"><path d="M 0 0 L 10 5 L 0 10 z"/></marker><marker fill="black" id="id15" markerHeight="10" markerUnits="strokeWidth" markerWidth="8" orient="auto" overflow="visible" refX="0" refY="5" stroke="none" viewBox="0 0 10 5"><path d="M 0 0 L 10 5 L 0 10 z"/></marker><marker fill="black" id="id16" markerHeight="10" markerUnits="strokeWidth" markerWidth="8" orient="auto" overflow="visible" refX="0" refY="5" stroke="none" viewBox="0 0 10 5"><path d="M 0 0 L 10 5 L 0 10 z"/></marker><marker fill="black" id="id17" markerHeight="10" markerUnits="strokeWidth" markerWidth="8" orient="auto" overflow="visible" refX="0" refY="5" stroke="none" viewBox="0 0 10 5"><path d="M 0 0 L 10 5 L 0 10 z"/></marker><marker fill="black" id="id18" markerHeight="10" markerUnits="strokeWidth" markerWidth="8" orient="auto" overflow="visible" refX="0" refY="5" stroke="none" viewBox="0 0 10 5"><path d="M 0 0 L 10 5 L 0 10 z"/></marker><marker fill="black" id="id19" markerHeight="10" markerUnits="strokeWidth" markerWidth="8" orient="auto" overflow="visible" refX="0" refY="5" stroke="none" viewBox="0 0 10 5"><path d="M 0 0 L 10 5 L 0 10 z"/></marker><marker fill="black" id="id20" markerHeight="10" markerUnits="strokeWidth" markerWidth="8" orient="auto" overflow="visible" refX="0" refY="5" stroke="none" viewBox="0 0 10 5"><path d="M 0 0 L 10 5 L 0 10 z"/></marker><marker fill="black" id="id21" markerHeight="10" markerUnits="strokeWidth" markerWidth="8" orient="auto" overflow="visible" refX="0" refY="5" stroke="none" viewBox="0 0 10 5"><path d="M 0 0 L 10 5 L 0 10 z"/></marker><marker fill="black" id="id22" markerHeight="10" markerUnits="strokeWidth" markerWidth="8" orient="auto" overflow="visible" refX="0" refY="5" stroke="none" viewBox="0 0 10 5"><path d="M 0 0 L 10 5 L 0 10 z"/></marker><marker fill="black" id="id23" markerHeight="10" markerUnits="strokeWidth" markerWidth="8" orient="auto" overflow="visible" refX="0" refY="5" stroke="none" viewBox="0 0 10 5"><path d="M 0 0 L 10 5 L 0 10 z"/></marker><marker fill="black" id="id24" markerHeight="10" markerUnits="strokeWidth" markerWidth="8" orient="auto" overflow="visible" refX="0" refY="5" stroke="none" viewBox="0 0 10 5"><path d="M 0 0 L 10 5 L 0 10 z"/></marker><marker fill="black" id="id25" markerHeight="10" markerUnits="strokeWidth" markerWidth="8" orient="auto" overflow="visible" refX="0" refY="5" stroke="none" viewBox="0 0 10 5"><path d="M 0 0 L 10 5 L 0 10 z"/></marker></defs><rect fill="#EBD9B2" height="30" stroke="#000000" width="198.0" x="247.25" y="454.75"/><rect fill="#ffffff" height="20" stroke="rgb(0,0,0)" width="198.0" x="247.25" y="484.75"/><rect fill="#EBD9B2" height="30" stroke="#000000" width="107.25" x="793.433349609" y="886.433349609"/><rect fill="#ffffff" height="20" stroke="rgb(0,0,0)" width="107.25" x="793.433349609" y="916.433349609"/><rect fill="#EBD9B2" height="30" stroke="#000000" width="198.0" x="259.933349609" y="1251.43334961"/><rect fill="#ffffff" height="20" stroke="rgb(0,0,0)" width="198.0" x="259.933349609" y="1281.43334961"/><rect fill="#EBD9B2" height="30" stroke="#000000" width="107.25" x="1135.43334961" y="899.433349609"/><rect fill="#ffffff" height="20" stroke="rgb(0,0,0)" width="107.25" x="1135.43334961" y="929.433349609"/><rect fill="#EBD9B2" height="30" stroke="#000000" width="225.5" x="542.433349609" y="225.433334351"/><rect fill="#ffffff" height="95" stroke="rgb(0,0,0)" width="225.5" x="542.433349609" y="255.433334351"/><rect fill="#EBD9B2" height="30" stroke="#000000" width="258.5" x="580.433349609" y="476.433334351"/><rect fill="#ffffff" height="140" stroke="rgb(0,0,0)" width="258.5" x="580.433349609" y="506.433334351"/><rect fill="#EBD9B2" height="30" stroke="#000000" width="225.5" x="554.433349609" y="1091.43334961"/><rect fill="#ffffff" height="95" stroke="rgb(0,0,0)" width="225.5" x="554.433349609" y="1121.43334961"/><rect fill="#EBD9B2" height="30" stroke="#000000" width="258.5" x="592.433349609" y="1361.43334961"/><rect fill="#ffffff" height="140" stroke="rgb(0,0,0)" width="258.5" x="592.433349609" y="1391.43334961"/><rect fill="#EBD9B2" height="30" stroke="#000000" width="225.5" x="927.433349609" y="221.433334351"/><rect fill="#ffffff" height="95" stroke="rgb(0,0,0)" width="225.5" x="927.433349609" y="251.433334351"/><rect fill="#EBD9B2" height="30" stroke="#000000" width="159.5" x="957.433349609" y="506.433334351"/><rect fill="#ffffff" height="110" stroke="rgb(0,0,0)" width="159.5" x="957.433349609" y="536.433334351"/><rect fill="#EBD9B2" height="30" stroke="#000000" width="225.5" x="903.166687012" y="1096.66668701"/><rect fill="#ffffff" height="95" stroke="rgb(0,0,0)" width="225.5" x="903.166687012" y="1126.66668701"/><rect fill="#EBD9B2" height="30" stroke="#000000" width="159.5" x="949.166687012" y="1389.66668701"/><rect fill="#ffffff" height="110" stroke="rgb(0,0,0)" width="159.5" x="949.166687012" y="1419.66668701"/><rect fill="#EBD9B2" height="30" stroke="#000000" width="236.5" x="1542.43334961" y="854.433349609"/><rect fill="#ffffff" height="125" stroke="rgb(0,0,0)" width="236.5" x="1542.43334961" y="884.433349609"/><line marker-end="url(#id13)" stroke="#000000" x1="450.25" x2="537.433349609" y1="494.75" y2="270.433334351"/><line marker-end="url(#id14)" stroke="#000000" x1="450.25" x2="575.433349609" y1="494.75" y2="521.433334351"/><line marker-end="url(#id15)" stroke="#000000" x1="462.933349609" x2="549.433349609" y1="1291.43334961" y2="1136.43334961"/><line marker-end="url(#id16)" stroke="#000000" x1="462.933349609" x2="587.433349609" y1="1291.43334961" y2="1406.43334961"/><line marker-end="url(#id17)" stroke="#000000" x1="843.933349609" x2="922.433349609" y1="546.433334351" y2="266.433334351"/><line marker-end="url(#id18)" stroke="#000000" x1="843.933349609" x2="952.433349609" y1="546.433334351" y2="566.433334351"/><line marker-end="url(#id19)" stroke="#000000" x1="905.683349609" x2="952.433349609" y1="926.433349609" y2="551.433334351"/><line marker-end="url(#id20)" stroke="#000000" x1="855.933349609" x2="898.166687012" y1="1431.43334961" y2="1141.66668701"/><line marker-end="url(#id21)" stroke="#000000" x1="855.933349609" x2="944.166687012" y1="1431.43334961" y2="1449.66668701"/><line marker-end="url(#id22)" stroke="#000000" x1="905.683349609" x2="944.166687012" y1="926.433349609" y2="1434.66668701"/><line marker-end="url(#id23)" stroke="#000000" x1="1247.68334961" x2="1537.43334961" y1="939.433349609" y2="929.433349609"/><line marker-end="url(#id24)" stroke="#000000" x1="1121.93334961" x2="1537.43334961" y1="606.433334351" y2="899.433349609"/><line marker-end="url(#id25)" stroke="#000000" x1="1113.66668701" x2="1537.43334961" y1="1489.66668701" y2="914.433349609"/><g style="font-family: Helvetica, Arial, FreeSans, Sans, sans, sans-serif;"><text style="font-size:14px" x="252.25" y="474.75">Input dataset collection</text><text style="font-size:10px" x="252.25" y="499.75">output</text><text style="font-size:14px" x="798.433349609" y="906.433349609">Input dataset</text><text style="font-size:10px" x="798.433349609" y="931.433349609">output</text><text style="font-size:14px" x="264.933349609" y="1271.43334961">Input dataset collection</text><text style="font-size:10px" x="264.933349609" y="1296.43334961">output</text><text style="font-size:14px" x="1140.43334961" y="919.433349609">Input dataset</text><text style="font-size:10px" x="1140.43334961" y="944.433349609">output</text><text style="font-size:14px" x="547.433349609" y="245.433334351">FastQC</text><text style="font-size:10px" x="547.433349609" y="270.433334351">Short read data from your current history</text><text style="font-size:10px" x="547.433349609" y="285.433334351">Contaminant list</text><text style="font-size:10px" x="547.433349609" y="300.433334351">Submodule and Limit specifing file</text><text style="font-size:10px" x="547.433349609" y="330.433334351">html_file</text><text style="font-size:10px" x="547.433349609" y="345.433334351">text_file</text><text style="font-size:14px" x="585.433349609" y="496.433334351">Trimmomatic</text><text style="font-size:10px" x="585.433349609" y="521.433334351">Select FASTQ dataset collection with R1/R2 pair</text><text style="font-size:10px" x="585.433349609" y="551.433334351">fastq_out_paired</text><text style="font-size:10px" x="585.433349609" y="566.433334351">fastq_out_unpaired</text><text style="font-size:10px" x="585.433349609" y="581.433334351">fastq_out_r1_paired</text><text style="font-size:10px" x="585.433349609" y="596.433334351">fastq_out_r2_paired</text><text style="font-size:10px" x="585.433349609" y="611.433334351">fastq_out_r1_unpaired</text><text style="font-size:10px" x="585.433349609" y="626.433334351">fastq_out_r2_unpaired</text><text style="font-size:10px" x="585.433349609" y="641.433334351">fastq_out</text><text style="font-size:14px" x="559.433349609" y="1111.43334961">FastQC</text><text style="font-size:10px" x="559.433349609" y="1136.43334961">Short read data from your current history</text><text style="font-size:10px" x="559.433349609" y="1151.43334961">Contaminant list</text><text style="font-size:10px" x="559.433349609" y="1166.43334961">Submodule and Limit specifing file</text><text style="font-size:10px" x="559.433349609" y="1196.43334961">html_file</text><text style="font-size:10px" x="559.433349609" y="1211.43334961">text_file</text><text style="font-size:14px" x="597.433349609" y="1381.43334961">Trimmomatic</text><text style="font-size:10px" x="597.433349609" y="1406.43334961">Select FASTQ dataset collection with R1/R2 pair</text><text style="font-size:10px" x="597.433349609" y="1436.43334961">fastq_out_paired</text><text style="font-size:10px" x="597.433349609" y="1451.43334961">fastq_out_unpaired</text><text style="font-size:10px" x="597.433349609" y="1466.43334961">fastq_out_r1_paired</text><text style="font-size:10px" x="597.433349609" y="1481.43334961">fastq_out_r2_paired</text><text style="font-size:10px" x="597.433349609" y="1496.43334961">fastq_out_r1_unpaired</text><text style="font-size:10px" x="597.433349609" y="1511.43334961">fastq_out_r2_unpaired</text><text style="font-size:10px" x="597.433349609" y="1526.43334961">fastq_out</text><text style="font-size:14px" x="932.433349609" y="241.433334351">FastQC</text><text style="font-size:10px" x="932.433349609" y="266.433334351">Short read data from your current history</text><text style="font-size:10px" x="932.433349609" y="281.433334351">Contaminant list</text><text style="font-size:10px" x="932.433349609" y="296.433334351">Submodule and Limit specifing file</text><text style="font-size:10px" x="932.433349609" y="326.433334351">html_file</text><text style="font-size:10px" x="932.433349609" y="341.433334351">text_file</text><text style="font-size:14px" x="962.433349609" y="526.433334351">Kallisto quant</text><text style="font-size:10px" x="962.433349609" y="551.433334351">FASTA reference transcriptome</text><text style="font-size:10px" x="962.433349609" y="566.433334351">Collection of reads</text><text style="font-size:10px" x="962.433349609" y="596.433334351">abundance_h5</text><text style="font-size:10px" x="962.433349609" y="611.433334351">abundance_tab</text><text style="font-size:10px" x="962.433349609" y="626.433334351">pseudobam_output</text><text style="font-size:10px" x="962.433349609" y="641.433334351">fusion_output</text><text style="font-size:14px" x="908.166687012" y="1116.66668701">FastQC</text><text style="font-size:10px" x="908.166687012" y="1141.66668701">Short read data from your current history</text><text style="font-size:10px" x="908.166687012" y="1156.66668701">Contaminant list</text><text style="font-size:10px" x="908.166687012" y="1171.66668701">Submodule and Limit specifing file</text><text style="font-size:10px" x="908.166687012" y="1201.66668701">html_file</text><text style="font-size:10px" x="908.166687012" y="1216.66668701">text_file</text><text style="font-size:14px" x="954.166687012" y="1409.66668701">Kallisto quant</text><text style="font-size:10px" x="954.166687012" y="1434.66668701">FASTA reference transcriptome</text><text style="font-size:10px" x="954.166687012" y="1449.66668701">Collection of reads</text><text style="font-size:10px" x="954.166687012" y="1479.66668701">abundance_h5</text><text style="font-size:10px" x="954.166687012" y="1494.66668701">abundance_tab</text><text style="font-size:10px" x="954.166687012" y="1509.66668701">pseudobam_output</text><text style="font-size:10px" x="954.166687012" y="1524.66668701">fusion_output</text><text style="font-size:14px" x="1547.43334961" y="874.433349609">DESeq2</text><text style="font-size:10px" x="1547.43334961" y="899.433349609">Factor 1 &gt; Factor level 1 &gt; Counts file(s)</text><text style="font-size:10px" x="1547.43334961" y="914.433349609">Factor 1 &gt; Factor level 2 &gt; Counts file(s)</text><text style="font-size:10px" x="1547.43334961" y="929.433349609">Tabular file with Transcript - Gene mapping</text><text style="font-size:10px" x="1547.43334961" y="959.433349609">split_output</text><text style="font-size:10px" x="1547.43334961" y="974.433349609">deseq_out</text><text style="font-size:10px" x="1547.43334961" y="989.433349609">plots</text><text style="font-size:10px" x="1547.43334961" y="1004.43334961">counts_out</text><line stroke="rgb(0,0,0)" x1="542.433349609" x2="767.933349609" y1="310.433334351" y2="310.433334351"/><circle cx="445.25" cy="494.75" fill="#ffffff" r="5" stroke="#000000"/><line stroke="rgb(0,0,0)" x1="580.433349609" x2="838.933349609" y1="531.433334351" y2="531.433334351"/><circle cx="445.25" cy="494.75" fill="#ffffff" r="5" stroke="#000000"/><line stroke="rgb(0,0,0)" x1="554.433349609" x2="779.933349609" y1="1176.43334961" y2="1176.43334961"/><circle cx="457.933349609" cy="1291.43334961" fill="#ffffff" r="5" stroke="#000000"/><line stroke="rgb(0,0,0)" x1="592.433349609" x2="850.933349609" y1="1416.43334961" y2="1416.43334961"/><circle cx="457.933349609" cy="1291.43334961" fill="#ffffff" r="5" stroke="#000000"/><line stroke="rgb(0,0,0)" x1="927.433349609" x2="1152.93334961" y1="306.433334351" y2="306.433334351"/><circle cx="838.933349609" cy="546.433334351" fill="#ffffff" r="5" stroke="#000000"/><line stroke="rgb(0,0,0)" x1="957.433349609" x2="1116.93334961" y1="576.433334351" y2="576.433334351"/><circle cx="838.933349609" cy="546.433334351" fill="#ffffff" r="5" stroke="#000000"/><circle cx="900.683349609" cy="926.433349609" fill="#ffffff" r="5" stroke="#000000"/><line stroke="rgb(0,0,0)" x1="903.166687012" x2="1128.66668701" y1="1181.66668701" y2="1181.66668701"/><circle cx="850.933349609" cy="1431.43334961" fill="#ffffff" r="5" stroke="#000000"/><line stroke="rgb(0,0,0)" x1="949.166687012" x2="1108.66668701" y1="1459.66668701" y2="1459.66668701"/><circle cx="850.933349609" cy="1431.43334961" fill="#ffffff" r="5" stroke="#000000"/><circle cx="900.683349609" cy="926.433349609" fill="#ffffff" r="5" stroke="#000000"/><line stroke="rgb(0,0,0)" x1="1542.43334961" x2="1778.93334961" y1="939.433349609" y2="939.433349609"/><circle cx="1242.68334961" cy="939.433349609" fill="#ffffff" r="5" stroke="#000000"/><circle cx="1116.93334961" cy="606.433334351" fill="#ffffff" r="5" stroke="#000000"/><circle cx="1108.66668701" cy="1489.66668701" fill="#ffffff" r="5" stroke="#000000"/></g></svg>