<?xml version="1.0" encoding="UTF-8" standalone="no"?>
<!DOCTYPE svg PUBLIC "-//W3C//DTD SVG 1.1//EN" "http://www.w3.org/Graphics/SVG/1.1/DTD/svg11.dtd">
<svg baseProfile="full" height="100%" version="1.1" width="100%" xmlns="http://www.w3.org/2000/svg" xmlns:ev="http://www.w3.org/2001/xml-events" xmlns:xlink="http://www.w3.org/1999/xlink"><defs><marker fill="black" id="id1" markerHeight="10" markerUnits="strokeWidth" markerWidth="8" orient="auto" overflow="visible" refX="0" refY="5" stroke="none" viewBox="0 0 10 5"><path d="M 0 0 L 10 5 L 0 10 z"/></marker><marker fill="black" id="id2" markerHeight="10" markerUnits="strokeWidth" markerWidth="8" orient="auto" overflow="visible" refX="0" refY="5" stroke="none" viewBox="0 0 10 5"><path d="M 0 0 L 10 5 L 0 10 z"/></marker><marker fill="black" id="id3" markerHeight="10" markerUnits="strokeWidth" markerWidth="8" orient="auto" overflow="visible" refX="0" refY="5" stroke="none" viewBox="0 0 10 5"><path d="M 0 0 L 10 5 L 0 10 z"/></marker><marker fill="black" id="id4" markerHeight="10" markerUnits="strokeWidth" markerWidth="8" orient="auto" overflow="visible" refX="0" refY="5" stroke="none" viewBox="0 0 10 5"><path d="M 0 0 L 10 5 L 0 10 z"/></marker><marker fill="black" id="id5" markerHeight="10" markerUnits="strokeWidth" markerWidth="8" orient="auto" overflow="visible" refX="0" refY="5" stroke="none" viewBox="0 0 10 5"><path d="M 0 0 L 10 5 L 0 10 z"/></marker></defs><rect fill="#EBD9B2" height="30" stroke="#000000" width="198.0" x="187" y="377"/><rect fill="#ffffff" height="20" stroke="rgb(0,0,0)" width="198.0" x="187" y="407"/><rect fill="#EBD9B2" height="30" stroke="#000000" width="107.25" x="866.5" y="463.5"/><rect fill="#ffffff" height="20" stroke="rgb(0,0,0)" width="107.25" x="866.5" y="493.5"/><rect fill="#EBD9B2" height="30" stroke="#000000" width="225.5" x="492" y="167"/><rect fill="#ffffff" height="95" stroke="rgb(0,0,0)" width="225.5" x="492" y="197"/><rect fill="#EBD9B2" height="30" stroke="#000000" width="258.5" x="533.433349609" y="460.433349609"/><rect fill="#ffffff" height="140" stroke="rgb(0,0,0)" width="258.5" x="533.433349609" y="490.433349609"/><rect fill="#EBD9B2" height="30" stroke="#000000" width="225.5" x="865" y="173"/><rect fill="#ffffff" height="95" stroke="rgb(0,0,0)" width="225.5" x="865" y="203"/><rect fill="#EBD9B2" height="30" stroke="#000000" width="159.5" x="940.5" y="642.5"/><rect fill="#ffffff" height="110" stroke="rgb(0,0,0)" width="159.5" x="940.5" y="672.5"/><line marker-end="url(#id1)" stroke="#000000" x1="390.0" x2="487" y1="417" y2="212"/><line marker-end="url(#id2)" stroke="#000000" x1="390.0" x2="528.433349609" y1="417" y2="505.433349609"/><line marker-end="url(#id3)" stroke="#000000" x1="796.933349609" x2="860" y1="530.433349609" y2="218"/><line marker-end="url(#id4)" stroke="#000000" x1="796.933349609" x2="935.5" y1="530.433349609" y2="702.5"/><line marker-end="url(#id5)" stroke="#000000" x1="978.75" x2="935.5" y1="503.5" y2="687.5"/><g style="font-family: Helvetica, Arial, FreeSans, Sans, sans, sans-serif;"><text style="font-size:14px" x="192" y="397">Input dataset collection</text><text style="font-size:10px" x="192" y="422">output</text><text style="font-size:14px" x="871.5" y="483.5">Input dataset</text><text style="font-size:10px" x="871.5" y="508.5">output</text><text style="font-size:14px" x="497" y="187">FastQC</text><text style="font-size:10px" x="497" y="212">Short read data from your current history</text><text style="font-size:10px" x="497" y="227">Contaminant list</text><text style="font-size:10px" x="497" y="242">Submodule and Limit specifing file</text><text style="font-size:10px" x="497" y="272">html_file</text><text style="font-size:10px" x="497" y="287">text_file</text><text style="font-size:14px" x="538.433349609" y="480.433349609">Trimmomatic</text><text style="font-size:10px" x="538.433349609" y="505.433349609">Select FASTQ dataset collection with R1/R2 pair</text><text style="font-size:10px" x="538.433349609" y="535.433349609">fastq_out_paired</text><text style="font-size:10px" x="538.433349609" y="550.433349609">fastq_out_unpaired</text><text style="font-size:10px" x="538.433349609" y="565.433349609">fastq_out_r1_paired</text><text style="font-size:10px" x="538.433349609" y="580.433349609">fastq_out_r2_paired</text><text style="font-size:10px" x="538.433349609" y="595.433349609">fastq_out_r1_unpaired</text><text style="font-size:10px" x="538.433349609" y="610.433349609">fastq_out_r2_unpaired</text><text style="font-size:10px" x="538.433349609" y="625.433349609">fastq_out</text><text style="font-size:14px" x="870" y="193">FastQC</text><text style="font-size:10px" x="870" y="218">Short read data from your current history</text><text style="font-size:10px" x="870" y="233">Contaminant list</text><text style="font-size:10px" x="870" y="248">Submodule and Limit specifing file</text><text style="font-size:10px" x="870" y="278">html_file</text><text style="font-size:10px" x="870" y="293">text_file</text><text style="font-size:14px" x="945.5" y="662.5">Kallisto quant</text><text style="font-size:10px" x="945.5" y="687.5">FASTA reference transcriptome</text><text style="font-size:10px" x="945.5" y="702.5">Collection of reads</text><text style="font-size:10px" x="945.5" y="732.5">abundance_h5</text><text style="font-size:10px" x="945.5" y="747.5">abundance_tab</text><text style="font-size:10px" x="945.5" y="762.5">pseudobam_output</text><text style="font-size:10px" x="945.5" y="777.5">fusion_output</text><line stroke="rgb(0,0,0)" x1="492" x2="717.5" y1="252" y2="252"/><circle cx="385.0" cy="417" fill="#ffffff" r="5" stroke="#000000"/><line stroke="rgb(0,0,0)" x1="533.433349609" x2="791.933349609" y1="515.433349609" y2="515.433349609"/><circle cx="385.0" cy="417" fill="#ffffff" r="5" stroke="#000000"/><line stroke="rgb(0,0,0)" x1="865" x2="1090.5" y1="258" y2="258"/><circle cx="791.933349609" cy="530.433349609" fill="#ffffff" r="5" stroke="#000000"/><line stroke="rgb(0,0,0)" x1="940.5" x2="1100.0" y1="712.5" y2="712.5"/><circle cx="791.933349609" cy="530.433349609" fill="#ffffff" r="5" stroke="#000000"/><circle cx="973.75" cy="503.5" fill="#ffffff" r="5" stroke="#000000"/></g></svg>